HIERARCHY
ROOT Hips
{
	OFFSET 0.0000 0.0000 0.0000
	CHANNELS 6 Xposition Yposition Zposition Zrotation Xrotation Yrotation
	JOINT Spine1
	{
		OFFSET -0.0137 5.0038 -0.0537
		CHANNELS 3 Zrotation Xrotation Yrotation
		JOINT Spine2
		{
			OFFSET -0.0000 7.1253 -0.0298
			CHANNELS 3 Zrotation Xrotation Yrotation
			JOINT Chest
			{
				OFFSET -0.0000 7.5501 -0.8160
				CHANNELS 3 Zrotation Xrotation Yrotation
				JOINT Neck1
				{
					OFFSET -0.1817 26.3113 -0.5533
					CHANNELS 3 Zrotation Xrotation Yrotation
					JOINT Neck2
					{
						OFFSET -0.0000 7.7094 2.3026
						CHANNELS 3 Zrotation Xrotation Yrotation
						JOINT Head
						{
							OFFSET -0.0000 6.1289 1.9537
							CHANNELS 3 Zrotation Xrotation Yrotation
							JOINT Jaw
							{
								OFFSET 0.0026 0.4756 3.0949
								CHANNELS 3 Zrotation Xrotation Yrotation
								End Site
								{
									OFFSET 0.0 1.0 0.0
								}
							}
							JOINT LeftEye
							{
								OFFSET 3.2064 5.3802 7.5869
								CHANNELS 3 Zrotation Xrotation Yrotation
								End Site
								{
									OFFSET 0.0 1.0 0.0
								}
							}
							JOINT RightEye
							{
								OFFSET -3.2224 5.3619 7.5582
								CHANNELS 3 Zrotation Xrotation Yrotation
								End Site
								{
									OFFSET 0.0 1.0 0.0
								}
							}
						}
					}
				}
				JOINT LeftShoulder
				{
					OFFSET 1.6217 23.2372 5.1134
					CHANNELS 3 Zrotation Xrotation Yrotation
					JOINT LeftArm
					{
						OFFSET 14.9198 0.0000 -5.5023
						CHANNELS 3 Zrotation Xrotation Yrotation
						JOINT LeftForeArm
						{
							OFFSET 28.7393 0.0000 -0.0026
							CHANNELS 3 Zrotation Xrotation Yrotation
							JOINT LeftHand
							{
								OFFSET 27.0940 -0.0000 0.0026
								CHANNELS 3 Zrotation Xrotation Yrotation
								JOINT LeftHandThumbEnd
								{
									OFFSET 12.2686 -3.2202 4.8331
									CHANNELS 3 Zrotation Xrotation Yrotation
									End Site
									{
										OFFSET 0.0 1.0 0.0
									}
								}
								JOINT LeftHandMiddleEnd
								{
									OFFSET 19.0120 -0.3129 -0.0340
									CHANNELS 3 Zrotation Xrotation Yrotation
									End Site
									{
										OFFSET 0.0 1.0 0.0
									}
								}
							}
						}
					}
				}
				JOINT RightShoulder
				{
					OFFSET -1.3801 23.1803 5.2142
					CHANNELS 3 Zrotation Xrotation Yrotation
					JOINT RightArm
					{
						OFFSET -15.0372 0.0000 -5.5456
						CHANNELS 3 Zrotation Xrotation Yrotation
						JOINT RightForeArm
						{
							OFFSET -28.7366 0.0000 -0.0026
							CHANNELS 3 Zrotation Xrotation Yrotation
							JOINT RightHand
							{
								OFFSET -27.1336 -0.0000 0.0026
								CHANNELS 3 Zrotation Xrotation Yrotation
								JOINT RightHandThumbEnd
								{
									OFFSET -12.2642 -3.2115 4.8040
									CHANNELS 3 Zrotation Xrotation Yrotation
									End Site
									{
										OFFSET 0.0 1.0 0.0
									}
								}
								JOINT RightHandMiddleEnd
								{
									OFFSET -19.0006 -0.3066 -0.0316
									CHANNELS 3 Zrotation Xrotation Yrotation
									End Site
									{
										OFFSET 0.0 1.0 0.0
									}
								}
							}
						}
					}
				}
			}
		}
	}
	JOINT LeftLeg
	{
		OFFSET 10.0432 -8.4345 2.5957
		CHANNELS 3 Zrotation Xrotation Yrotation
		JOINT LeftShin
		{
			OFFSET -0.0000 -43.2218 -0.8029
			CHANNELS 3 Zrotation Xrotation Yrotation
			JOINT LeftFoot
			{
				OFFSET 0.0000 -42.1551 -3.4815
				CHANNELS 3 Zrotation Xrotation Yrotation
				JOINT LeftToeBase
				{
					OFFSET 0.0000 -5.0595 13.2315
					CHANNELS 3 Zrotation Xrotation Yrotation
					End Site
					{
						OFFSET 0.0 1.0 0.0
					}
				}
			}
		}
	}
	JOINT RightLeg
	{
		OFFSET -10.0473 -8.2953 2.6203
		CHANNELS 3 Zrotation Xrotation Yrotation
		JOINT RightShin
		{
			OFFSET 0.0000 -43.3622 -0.8056
			CHANNELS 3 Zrotation Xrotation Yrotation
			JOINT RightFoot
			{
				OFFSET 0.0000 -42.1174 -3.4784
				CHANNELS 3 Zrotation Xrotation Yrotation
				JOINT RightToeBase
				{
					OFFSET -0.0000 -5.0796 13.2842
					CHANNELS 3 Zrotation Xrotation Yrotation
					End Site
					{
						OFFSET 0.0 1.0 0.0
					}
				}
			}
		}
	}
}
MOTION
Frames: 5
Frame Time: 0.033333
-4.1089 87.6379 4.3133 1.2139 -2.1414 0.1555 0.8730 3.8739 -0.3835 -0.3230 -3.4391 -1.0788 -0.4802 14.1540 -3.3643 10.9995 10.5427 -0.4252 -4.7236 -4.3635 -15.6698 5.4935 -17.6934 -21.6012 0.0068 0.0187 -0.0291 0.6506 -10.5630 -3.8700 -0.6288 -10.6083 3.7666 -6.3016 12.7873 -10.3162 -62.3746 -17.6798 2.1780 -0.8215 -0.7204 -99.8864 1.9974 -17.7582 4.1575 -15.0614 11.1620 16.1625 -59.7754 1.8767 2.3469 15.4146 11.1902 12.9952 44.3609 -28.9535 -0.5893 1.0498 0.8133 67.0024 -23.6701 -18.3975 24.1331 15.2038 7.5350 -16.0277 50.0913 -3.3264 -5.0839 18.0280 -17.6772 27.3774 -0.1539 49.5288 -0.7689 -20.3389 -25.9506 7.9538 1.6140 0.1778 -1.8322 -9.8402 -46.1771 -43.2743 0.2994 42.9987 0.2719 5.5256 5.1598 -2.4126 -1.4187 0.9364 0.7519
-4.0785 87.7203 4.3128 1.1796 -2.0910 0.1644 0.8906 3.9135 -0.4200 -0.2813 -3.4353 -1.0315 -0.5250 14.1903 -3.4842 11.1017 10.5623 -0.3862 -4.8160 -4.4003 -15.6197 5.5418 -17.5656 -21.6340 0.0020 -0.0064 -0.0269 0.6459 -10.5782 -3.8711 -0.6336 -10.6279 3.7735 -6.2255 12.9020 -10.3229 -62.4324 -17.9243 2.1994 -0.8601 -0.7261 -100.0117 1.9608 -17.6440 4.0542 -15.1517 11.1047 16.0947 -59.8284 1.8796 2.3139 15.2011 11.1618 12.9758 44.3518 -28.9363 -0.5822 1.1303 0.7101 67.2326 -23.3522 -17.9518 23.9643 15.1922 7.5837 -16.1234 50.1252 -3.3836 -5.0504 17.9565 -17.7523 27.4553 -0.1905 49.4284 -0.8414 -20.2799 -25.9715 7.8151 1.6195 0.2037 -1.8325 -9.6872 -46.1075 -43.4231 0.2701 42.7528 0.2544 5.5851 5.3784 -2.4514 -1.4260 0.9383 0.7722
-4.0150 87.7643 4.2834 1.1780 -2.0096 0.1654 0.8801 3.9377 -0.4460 -0.2608 -3.4220 -1.0289 -0.5436 14.2023 -3.5537 11.2081 10.5780 -0.3532 -4.8581 -4.4316 -15.6087 5.5968 -17.4781 -21.6586 -0.0002 -0.0155 -0.0102 0.6396 -10.5940 -3.8569 -0.6312 -10.6398 3.7914 -6.1567 12.9982 -10.3447 -62.5220 -18.0649 2.2497 -0.8961 -0.6948 -100.1886 1.9383 -17.5783 3.9957 -15.1422 11.0943 16.1044 -59.8457 1.8814 2.3286 15.0520 11.1366 13.0178 44.2229 -28.7599 -0.5215 1.0325 0.6321 67.5081 -23.1488 -17.6485 23.7310 15.1741 7.6358 -16.2016 50.0934 -3.3995 -5.0691 17.8505 -17.8721 27.5826 -0.2095 49.3925 -0.8775 -20.1564 -26.0177 7.7041 1.6279 0.2670 -1.8390 -9.5192 -46.1653 -43.6289 0.2466 42.5959 0.2239 5.5926 5.6270 -2.4221 -1.4291 0.9417 0.7988
-3.9242 87.8227 4.1830 1.1589 -1.9301 0.1667 0.8698 3.9640 -0.4589 -0.2559 -3.4248 -1.0290 -0.5257 14.2269 -3.5795 11.2770 10.6068 -0.3579 -4.8420 -4.4353 -15.5693 5.6594 -17.5017 -21.6868 0.0004 -0.0170 0.0042 0.6340 -10.6044 -3.8441 -0.6243 -10.6449 3.8059 -6.1200 13.0895 -10.3563 -62.5807 -18.1767 2.3085 -0.9926 -0.6899 -100.2999 1.9339 -17.4254 3.9300 -15.1480 11.0763 16.0863 -59.8660 1.8836 2.3221 14.9519 11.1283 13.0723 44.0739 -28.5714 -0.4883 0.9185 0.5824 67.7240 -23.0173 -17.4165 23.5204 15.1724 7.6472 -16.2048 50.0702 -3.4087 -5.0632 17.7361 -18.0115 27.7009 -0.2030 49.3545 -0.8795 -20.0383 -26.0550 7.6079 1.6280 0.2962 -1.8439 -9.3387 -46.1908 -43.8442 0.2269 42.3892 0.1996 5.6012 5.8439 -2.3324 -1.4299 0.9162 0.8026
-3.8672 87.8804 4.1159 1.1240 -1.8534 0.1646 0.8657 3.9846 -0.4580 -0.2518 -3.4303 -1.0363 -0.4930 14.2633 -3.6096 11.3366 10.6130 -0.3867 -4.8016 -4.4289 -15.5346 5.7092 -17.5647 -21.6863 0.0019 -0.0161 0.0091 0.6309 -10.6002 -3.8395 -0.6177 -10.6379 3.8092 -6.0633 13.1505 -10.3302 -62.6902 -18.2772 2.3797 -1.1040 -0.6530 -100.3448 1.9848 -17.1230 3.8126 -15.1818 11.0519 16.0616 -59.8336 1.9072 2.3053 14.8983 11.1499 13.1421 43.9937 -28.5034 -0.5597 0.8627 0.5674 67.9163 -22.8732 -17.2762 23.4064 15.1729 7.6552 -16.1966 50.0390 -3.4149 -5.0605 17.6446 -18.1467 27.8473 -0.1927 49.3024 -0.8704 -19.9205 -26.0524 7.5485 1.6260 0.3193 -1.8447 -9.1194 -46.1554 -44.0977 0.2185 42.1037 0.1872 5.6038 6.0847 -2.2566 -1.4304 0.8844 0.8044
